PathFileType	4	(X/Y/Z)	./resultDataOpenSim/trcMotMarkerGrf/sub09/qtm-14-06.trc
DataRate	CameraRate	NumFrames	NumMarkers	Units	OrigDataRate	OrigDataStartFrame	OrigNumFrames
250.000000	250.000000	9	24	m	250.000000	307	490
Frame#	Time	L.Toe.Tip			R.Toe.Tip			L.Ankle.Lat			R.Ankle.Lat			L.Ankle.Med			R.Ankle.Med			L.Heel			R.Heel			L.Knee.Lat			R.Knee.Lat			L.Knee.Med			R.Knee.Med			L.Thigh.Upper			R.Thigh.Upper			L.ASIS			R.ASIS			V.Sacral			L.Acromium			R.Acromium			C7			L.Elbow			R.Elbow			L.Wrist.Lat			R.Wrist.Lat
		X1	Y1	Z1	X2	Y2	Z2	X3	Y3	Z3	X4	Y4	Z4	X5	Y5	Z5	X6	Y6	Z6	X7	Y7	Z7	X8	Y8	Z8	X9	Y9	Z9	X10	Y10	Z10	X11	Y11	Z11	X12	Y12	Z12	X13	Y13	Z13	X14	Y14	Z14	X15	Y15	Z15	X16	Y16	Z16	X17	Y17	Z17	X18	Y18	Z18	X19	Y19	Z19	X20	Y20	Z20	X21	Y21	Z21	X22	Y22	Z22	X23	Y23	Z23	X24	Y24	Z24

307	1.224	0.19340666	-0.01296395	0.017751966	1.0976549	0.040551331	0.055270161	0.16958714	0.13847109	-0.062357067	0.95019085	0.053522598	0.09865651	0.20651403	0.13479618	0.02882953	0.95172447	0.092281722	0.005990205	0.11633779	0.18338113	-0.014660674	0.87952038	0.03199378	0.053964702	0.50500582	0.39222454	-0.11399995	0.95683839	0.5073841	0.15542539	0.52066279	0.37394446	0.0090782145	0.93427737	0.49581879	0.031333258	0.63033482	0.78003177	-0.12342976	0.70711065	0.82139878	0.24021484	0.74199724	0.85498588	-0.085904959	0.76764999	0.89574587	0.15006194	0.59080935	0.93664549	0.044525822	0.77453485	1.3225926	-0.12784444	0.74359537	1.3369399	0.20090021	0.69079154	1.3819817	0.031230557	0.65927856	0.96046355	-0.19687555	0.56455441	1.0311207	0.29123929	0.90078009	0.83544444	-0.16097106	0.62962769	0.77037281	0.33313483
308	1.228	0.19629306	-0.010061255	0.016162102	1.09776	0.040444178	0.055027628	0.17833082	0.14327045	-0.062789558	0.95032224	0.053612737	0.098434948	0.21503891	0.1383671	0.02859369	0.95208439	0.092099039	0.0057016151	0.12626922	0.18991187	-0.01487753	0.8795676	0.031981346	0.053806323	0.51801756	0.39008934	-0.11518535	0.96179827	0.5066138	0.15477566	0.53334541	0.37188342	0.0080545123	0.93922618	0.49542133	0.030853462	0.63748711	0.77934091	-0.12301736	0.71338569	0.82221743	0.24057987	0.74856214	0.85510529	-0.085252671	0.77407168	0.89643542	0.15063885	0.59729631	0.93717568	0.044718104	0.78131253	1.3227433	-0.12782478	0.75038945	1.3372341	0.20077661	0.69735055	1.3824031	0.031113686	0.6655694	0.96086688	-0.19653359	0.57242236	1.0306441	0.29145183	0.90559376	0.83314313	-0.16123717	0.6387477	0.77010322	0.33291793
309	1.232	0.19942719	-0.0066871425	0.01433384	1.0978106	0.040360994	0.054924193	0.18728693	0.1481614	-0.06315798	0.95030193	0.05371381	0.098294677	0.2238488	0.14207799	0.028380438	0.95242007	0.091882984	0.0054880311	0.13664584	0.19661018	-0.015002277	0.87957011	0.031957172	0.05370669	0.53108357	0.38808489	-0.11624922	0.96678453	0.50589131	0.1542643	0.5462088	0.37002167	0.0070846539	0.94391288	0.49486148	0.030464544	0.64455638	0.7786977	-0.12266385	0.7196762	0.82304965	0.24089108	0.75498257	0.8553346	-0.084681925	0.78035728	0.8970739	0.15118844	0.60377476	0.93775785	0.044842112	0.78796976	1.322994	-0.12782321	0.75710081	1.3376535	0.20061835	0.70379492	1.3828729	0.030969992	0.67187119	0.96133442	-0.19621428	0.5802226	1.0302772	0.29164071	0.91031994	0.83084949	-0.16152413	0.64789194	0.76995834	0.33265319
310	1.236	0.20290071	-0.002810023	0.012317843	1.0978047	0.040299821	0.054898167	0.19636189	0.15313925	-0.063416366	0.95018895	0.053782957	0.098232865	0.23293723	0.14592996	0.028161191	0.95269399	0.091690064	0.0053632195	0.14747352	0.20345093	-0.014978358	0.87952396	0.031933298	0.053685586	0.54417845	0.38623096	-0.11717255	0.9717527	0.50525724	0.15398422	0.55937942	0.36832102	0.0061486098	0.94846273	0.49425032	0.03015221	0.65157109	0.77811266	-0.12242733	0.72598736	0.82387975	0.24115017	0.76127272	0.85566423	-0.084184659	0.78652966	0.89768503	0.15170554	0.61017504	0.93839683	0.044942761	0.79449771	1.3233444	-0.12784663	0.76372097	1.3381947	0.20043242	0.71012576	1.3834063	0.030812393	0.6781756	0.96187379	-0.19590353	0.58797575	1.0300216	0.29182775	0.91494379	0.82857327	-0.16183983	0.65706127	0.76994457	0.33233569
311	1.24	0.20681712	0.0015582516	0.010182441	1.0977565	0.040254279	0.054900781	0.20551989	0.15823061	-0.063575285	0.95005342	0.05380271	0.098222863	0.24229796	0.1499119	0.027913026	0.95289917	0.091552639	0.0053130882	0.15871864	0.21038546	-0.014790344	0.87944038	0.031916853	0.053723345	0.55729748	0.38454721	-0.11794869	0.97662023	0.50473147	0.15388997	0.57261812	0.3667658	0.0053582776	0.9529537	0.49366137	0.029886792	0.65853387	0.77761111	-0.12232925	0.73231215	0.82468806	0.24136071	0.76744666	0.85608588	-0.083749807	0.79261365	0.89829966	0.15217698	0.61647975	0.9391119	0.045053683	0.80089075	1.3237918	-0.12789917	0.77024307	1.3388488	0.20022901	0.71635544	1.3840407	0.030653444	0.68447348	0.96248638	-0.19558973	0.59572172	1.0298781	0.29204254	0.91945402	0.82631827	-0.16219136	0.66625159	0.77006259	0.33195968
312	1.244	0.21126818	0.0063717738	0.0079895579	1.0976834	0.040218584	0.054914455	0.21481996	0.16347872	-0.063715959	0.94993514	0.053783543	0.098233519	0.25192419	0.15400828	0.02761706	0.95306183	0.091472421	0.005304806	0.17031309	0.2173524	-0.014493488	0.87933794	0.031907819	0.053780722	0.57044538	0.38305131	-0.11857223	0.98128292	0.50429156	0.15383151	0.5857031	0.36536301	0.0048101031	0.95740703	0.49312678	0.029646502	0.66541306	0.77723098	-0.12231758	0.73862292	0.82546053	0.24152909	0.7735104	0.85660386	-0.08337721	0.79862519	0.89894697	0.15258899	0.6226931	0.9399151	0.045189864	0.80714749	1.3243341	-0.1279848	0.7766666	1.3396106	0.20001466	0.72250123	1.3847961	0.030493244	0.69076034	0.96316432	-0.19527076	0.60346966	1.029853	0.29229183	0.92385908	0.82409445	-0.16257833	0.67545491	0.77031605	0.33152156
313	1.248	0.21631179	0.011570422	0.0057760398	1.0975998	0.04019078	0.054931221	0.22441504	0.16893676	-0.063974174	0.94984406	0.053742143	0.098243315	0.26180253	0.15821267	0.027261703	0.95321465	0.091431524	0.0053051676	0.18218563	0.22429615	-0.01419747	0.87923417	0.031900517	0.05382701	0.58363524	0.38176432	-0.11904925	0.9856376	0.50387213	0.15367063	0.59870808	0.36416374	0.0044581205	0.96179828	0.49264652	0.029433813	0.67217614	0.77700661	-0.12230788	0.74487157	0.82619596	0.24166252	0.77946226	0.85723282	-0.08307424	0.80457416	0.89965046	0.15293486	0.62880066	0.94081538	0.04535792	0.81327181	1.3249754	-0.12811213	0.78299824	1.3404831	0.19978819	0.72857371	1.3856618	0.030315113	0.69702916	0.96390081	-0.19494807	0.61115374	1.0299551	0.29254142	0.92818221	0.82192647	-0.16299559	0.68465886	0.77071417	0.33101967
314	1.252	0.22195122	0.017093676	0.0035585576	1.0975188	0.040171819	0.054940232	0.23447066	0.174635	-0.06446646	0.949781	0.053689715	0.098243836	0.27191385	0.16253619	0.026843311	0.95337366	0.091411793	0.0052975183	0.19429346	0.23118203	-0.014023839	0.87914218	0.031891068	0.053851411	0.59687657	0.38072294	-0.11940809	0.98966794	0.50342796	0.15340396	0.61176405	0.3632311	0.0042085544	0.96607536	0.49220685	0.029266114	0.67881706	0.77695541	-0.12224093	0.75100415	0.8269077	0.24176629	0.7853018	0.85798588	-0.082842825	0.81046397	0.90042505	0.15321094	0.63474309	0.94182007	0.045563969	0.8192692	1.3257265	-0.12829625	0.78925078	1.3414748	0.19954456	0.7345758	1.3866203	0.030103846	0.70326812	0.96469726	-0.19462104	0.61866049	1.0301864	0.29273423	0.9324335	0.81984259	-0.16344256	0.69384911	0.77126557	0.33045339
315	1.256	0.22814446	0.022879718	0.0013713722	1.0974509	0.040161609	0.054936954	0.24507776	0.18053627	-0.065209315	0.94975042	0.053635553	0.098236358	0.28224451	0.16699963	0.026357602	0.95353862	0.091404381	0.0052839724	0.20662578	0.23799702	-0.014068144	0.87907098	0.031882831	0.053856829	0.61016123	0.37998374	-0.11969526	0.99347366	0.50297726	0.15317984	0.62483437	0.36257048	0.0040540131	0.97018419	0.49179859	0.029156416	0.68534034	0.77708204	-0.12210459	0.75698181	0.8276216	0.24184603	0.79103509	0.85886459	-0.082678617	0.81629284	0.90127491	0.15341221	0.64044511	0.94293354	0.045809071	0.82513855	1.3265969	-0.12854566	0.79543841	1.3425887	0.19928056	0.74051137	1.3876681	0.029865841	0.70946802	0.96555981	-0.19428981	0.62590461	1.0305392	0.29282859	0.93659947	0.81785731	-0.16392766	0.7030157	0.77197366	0.3298234
